<svg xmlns="http://www.w3.org/2000/svg" xmlns:xlink="http://www.w3.org/1999/xlink" id="Livello_1" x="0px" y="0px" width="2000px" height="1200px" viewBox="0 0 2000 1200" xml:space="preserve"> <g id="Livello_2"> </g> <path fill="#15395F" d="M1307.177,955.732c35.811,34.1,83.841,79.82,96.333,91.745c59.078-80.159,107.485-202.874,116.383-278.193 c12.127-99.526-56.138-285.821-107.514-368.392c-4.389-6.408,5.697,6.982,0,0c42.545-22.963,95.64-51.633,110.045-59.383 c-57.93-81-159.619-165.035-228.48-196.818c-90.87-42.362-271.469-41.483-365.893-18.209c-3.048,0.895,0,0-3.226,1.085 C916.914,80.339,907.239,22.629,904.607,6.78c-95.365,28.641-207.758,97.72-260.084,152.625 c-69.451,72.308-126.881,255.65-135.367,352.534c-0.253,5.82-0.149-6.547,0,0c-48.418-7.274-111.04-16.671-127.664-19.193 c-2.321,99.55,28.533,227.82,64.522,294.583c47.231,88.43,208.786,201.349,298.271,239.44c6.905,2.585-8.172-2.335,0,0 c-21.494,43.922-49.165,100.496-56.548,115.549c94.222,32.196,225.822,41.402,300.335,27.19 C1086.622,1151.118,1243.902,1029.592,1307.177,955.732C1312.035,949.53,1302.172,963.382,1307.177,955.732z"></path> <circle fill="none" stroke="#FFFFFF" stroke-width="7" stroke-miterlimit="10" cx="980.292" cy="604.398" r="394.937"></circle> <path fill="#FF5000" d="M758.735,2514.389l48.755,48.771l-47.466,47.461l-48.77-48.771c-6.334-6.33-9.832-14.759-9.832-23.71 c0-8.967,3.497-17.413,9.832-23.742C724.331,2501.297,745.644,2501.297,758.735,2514.389 M700.885,2503.984 c-9.418,9.421-14.15,21.771-14.15,34.124c0,12.353,4.732,24.706,14.15,34.118l48.752,48.772l48.771,48.763 c18.832,18.851,49.377,18.851,68.229-0.015c18.835-18.82,18.835-49.389,0-68.222l-38.371-38.366l-59.144-59.166 C750.272,2485.158,719.703,2485.158,700.885,2503.984"></path> <path fill="#FF5000" d="M758.735,2514.389l48.755,48.771l-47.466,47.461l-48.77-48.771c-6.334-6.33-9.832-14.759-9.832-23.71 c0-8.967,3.497-17.413,9.832-23.742C724.331,2501.297,745.644,2501.297,758.735,2514.389 M700.885,2503.984 c-9.418,9.421-14.15,21.771-14.15,34.124c0,12.353,4.732,24.706,14.15,34.118l48.752,48.772l48.771,48.763 c18.832,18.851,49.377,18.851,68.229-0.015c18.835-18.82,18.835-49.389,0-68.222l-38.371-38.366l-59.144-59.166 C750.272,2485.158,719.703,2485.158,700.885,2503.984"></path> <path fill="#FFFFFF" d="M951.881,501.354l87.453,87.479l-85.141,85.131l-87.478-87.479c-11.363-11.354-17.635-26.473-17.635-42.528 c0-16.084,6.271-31.233,17.635-42.586C890.172,477.872,928.402,477.872,951.881,501.354 M848.117,482.693 c-16.893,16.897-25.381,39.049-25.381,61.207c0,22.156,8.488,44.314,25.381,61.196l87.445,87.482l87.481,87.465 c33.778,33.813,88.567,33.813,122.381-0.024c33.785-33.758,33.785-88.588,0-122.369l-68.826-68.817L970.516,482.708 C936.703,448.923,881.872,448.923,848.117,482.693"></path> </svg>